#!OML:ASF F:\VICON\USERDATA\INSTALL\rory3\rory3.ASF
:FULLY-SPECIFIED
:DEGREES
18
root 0.8532006480726696 17.721802772318505 -15.393889055456011 0.6113400075123421 -7.2197125706931775 -8.965480143491552
lfemur -25.773692614385503 -5.691878675694681 -7.084759777245965
ltibia 12.623811740526218
lfoot -6.506937233027283 13.109876544341361
ltoes -0.4674952235707588
rfemur 11.399385492099059 8.3701773118323 35.48568707243485
rtibia 23.550309313884604
rfoot -17.988289093344875 -5.057513452718621
rtoes -6.620400934783472
lowerback 8.691003097879472 2.9330239827422844 9.205019548295214
upperback -0.29611949339038834 4.959953467631981 2.346412540809688
thorax -4.627072198514201 2.252443017034388 -3.2853737551746467
lowerneck -16.812704234562716 -2.84261542950505 -1.2787724152361162
upperneck 21.771091795632984 -3.68213502240683 0.257254614567753
head 9.702821685617254 -1.7836844112388488 -0.1831653277226939
lclavicle -9.152775297015075e-16 -7.746724830317487e-16
lhumerus -38.73860028643885 6.9987591500883575 81.50190738654723
lradius 21.81500931713788
lwrist 2.1818802551305794
lhand -26.959003094961908 19.654494168484693
lfingers 7.125020000000057
lthumb -0.3804530950148345 49.63389414512109
rclavicle -9.152775297015075e-16 -7.746724830317487e-16
rhumerus -21.92351193137391 -8.06254913772279 -82.99510278366309
rradius 29.72510770871674
rwrist 1.1132254815458769
rhand -18.355897913608295 25.0619051912272
rfingers 7.125020000000057
rthumb 7.926842084964683 -4.7694547841854975
19
root 0.9375114036764771 17.81860051904406 -14.527989430608624 0.02202707703496129 -7.234752530395324 -7.496884375523031
lfemur -24.74609318396242 -3.7194537201925826 -10.409514791141746
ltibia 15.301310682825015
lfoot 0.23017192286695076 5.892655758461191
ltoes -1.708385911241849
rfemur 12.902184664137208 7.80105866012067 33.32959039683866
rtibia 26.202908322513522
rfoot -14.400791596341389 -2.7755378422787684
rtoes -10.656987245298607
lowerback 8.540243628135723 2.913824110923123 7.867062965041934
upperback -0.202097630357355 4.766204274112296 2.1079347075039707
thorax -4.547452587321441 2.1937235742275525 -2.767045833109522
lowerneck -16.949603588391113 -2.8543553264262433 -1.4385598455800408
upperneck 22.056091254863674 -3.615015412867148 0.0913978878270385
head 9.828910830641808 -1.7837444104066542 -0.21042587670977675
lclavicle -9.152775577828692e-16 -7.746725873017373e-16
lhumerus -39.1725999816643 8.868087048860259 80.74980841395457
lradius 20.294109676707173
lwrist 1.1092110083685593
lhand -27.20780231710831 18.485995244478083
lfingers 7.125020000000057
lthumb -0.6207743169423917 48.4647952215013
rclavicle -9.152775577828692e-16 -7.746725873017373e-16
rhumerus -22.88961119700857 -9.356948363879242 -82.56980317765117
rradius 29.25010782278816
rwrist 1.544165123292074
rhand -19.790689624013407 23.01650748900491
rfingers 7.125020000000057
rthumb 6.541900376097644 -6.862462432136888
20
root 0.9908776160105293 17.91849819360897 -13.649489811220299 -1.0373163218468302 -5.646656785514567 -4.494633027067871
lfemur -22.27719455242144 -3.7424836612932593 -14.944307990354503
ltibia 16.29021029217682
lfoot 3.03202590828225 0.12930111645146614
ltoes -3.0354245078054936
rfemur 11.890785221364096 6.226152391201651 29.764295894031218
rtibia 32.99190578522263
rfoot -7.955996092874308 -1.7821097532160808
rtoes -9.70340811688059
lowerback 8.386504168873298 2.6323159903078874 4.809440773307649
upperback -0.3102033230805412 4.050037255154948 1.3735413798466456
thorax -4.793901383835559 1.89811637926621 -1.7586798755673825
lowerneck -16.25200688108148 -3.0291037920973256 -1.4555195728385244
upperneck 22.235290914843116 -3.89499378412639 0.19302295275659498
head 9.76652125368819 -1.9058527167498487 -0.19979805254211236
lclavicle -9.152774954211318e-16 -7.746725172918664e-16
lhumerus -39.319899878223524 10.017585756760031 79.69280985787103
lradius 18.120410190610848
lwrist -0.6389357640669289
lhand -27.039502843285 18.007495685096714
lfingers 7.125020000000057
lthumb -0.45825784311144513 47.98679566159174
rclavicle -9.152774954211318e-16 -7.746725172918664e-16
rhumerus -24.533709947272445 -12.34229657911887 -81.76360392449622
rradius 27.669708202321566
rwrist 2.5871042562636957
rhand -20.067988021905332 22.674007873765294
rfingers 7.125020000000057
rthumb 6.274171978888376 -7.213112038089153
21
root 0.1532953162461253 17.841824955466063 9.917304847700613 0.2686256201250916 -0.7066926015978098 -2.067404271757533
lfemur -12.41004189301607 -1.2555790672886682 -20.257921076020015
ltibia 42.398785593905
lfoot -2.6286625369608996 -5.245531719628805
ltoes -7.277438458235693
rfemur -14.89413858062869 3.0235522897041744 27.115297405629484
rtibia 48.52908982854253
rfoot -2.3250590440810517 -6.841240799793319
rtoes 3.321266586429111
lowerback 12.421053411734325 0.537073072959889 1.204829716460345
upperback -0.252440815213355 0.9933939783799846 1.5277896253253713
thorax -7.120654564243704 0.46497812917078424 0.7721794192294327
lowerneck -17.705276480361693 -3.4585374048822595 -2.0494400347847805
upperneck 17.458549792368785 -4.541770793402305 1.8975039028070873
head 8.479824434911674 -2.1001676621853336 0.4027598566805176
lclavicle -8.688716553345952e-16 -7.387403508199818e-16
lhumerus -39.115762300032664 -2.634514590876514 86.92492063822202
lradius 61.315732386153286
lwrist 16.816708848623907
lhand -27.942035696186142 13.345064169210676
lfingers 7.125020000000057
lthumb -1.3297374748520596 43.29811672258645
rclavicle -8.688716553345952e-16 -7.387403508199818e-16
rhumerus -37.59152340062096 -6.584134112707199 -85.97669935861803
rradius 61.91450935690336
rwrist -4.296018061357512
rhand -17.99104318059801 29.702154061803604
rfingers 7.125020000000057
rthumb 8.278716707393494 -0.10887793849880335
22
root 0.1488431572137027 17.839002042309954 9.765632675302056 0.2454303185075961 -0.7312177311592742 -2.0902076791399105
lfemur -12.528596333719825 -1.281272900740313 -20.301738279873888
ltibia 42.2324394582399
lfoot -2.7200541469470423 -5.297002706514499
ltoes -7.33957358557356
rfemur -15.013410169671452 2.9958148483974365 27.072678644633424
rtibia 48.353264380199654
rfoot -2.419243172450237 -6.875402254468592
rtoes 3.2493722180095976
lowerback 12.402370474093658 0.5272302066563184 1.1790975946293127
upperback -0.2578749119647003 0.9776072372501207 1.5205569871224445
thorax -7.13411106252665 0.458053085604418 0.7557879065027976
lowerneck -17.719198424591045 -3.466021533846367 -2.0535261816571877
upperneck 17.423917729350517 -4.553066642419624 1.8850232805404656
head 8.47013339417722 -2.1049053469168957 0.3987880145451074
lclavicle -1.010190853380447e-15 -8.481642141652821e-16
lhumerus -39.20933670520659 -2.6929745687884163 86.87681691494298
lradius 61.03778395280942
lwrist 16.72312951515746
lhand -27.963053992760532 13.273702489332305
lfingers 7.125020000000057
lthumb -1.3500338485554777 43.226744056828025
rclavicle -1.010190853380447e-15 -8.481642141652821e-16
rhumerus -37.67797159657152 -6.694050245740466 -86.04763397777027
rradius 61.64087968420788
rwrist -4.375062624575886
rhand -18.00241688436643 29.643659416480638
rfingers 7.125020000000057
rthumb 8.267740205008824 -0.1673530265623204
23
root 0.14945722464598535 17.83939139476136 9.78655217543115 0.24862954818505142 -0.7278350839477677 -2.0870625017739144
lfemur -12.512244622009058 -1.2777290591528385 -20.295694758592546
ltibia 42.2553828759512
lfoot -2.7074488893927473 -5.289903531367391
ltoes -7.331003550716077
rfemur -14.996959544728725 2.9996405561579365 27.07855686976899
rtibia 48.37751523934632
rfoot -2.406252754666806 -6.870690509761649
rtoes 3.2592883036411866
lowerback 12.404947332525927 0.5285877915029779 1.1826467171707347
upperback -0.25712541002315387 0.979784635568359 1.5215545542662856
thorax -7.132255064731435 0.45900822752326587 0.7580487184050616
lowerneck -17.71727822980846 -3.464989279647361 -2.0529625967314034
upperneck 17.42869438307232 -4.551508653823304 1.8867446798913743
head 8.471470038366391 -2.104251898134656 0.3993358339028082
lclavicle -9.90699295139986e-16 -8.33071844304825e-16
lhumerus -39.196430383960184 -2.6849114317202583 86.88345165768736
lradius 61.07612020259912
lwrist 16.73603651614237
lhand -27.96015502816506 13.283545103490326
lfingers 7.125020000000057
lthumb -1.3472344557229343 43.23658818622194
rclavicle -9.90699295139986e-16 -8.33071844304825e-16
rhumerus -37.66604816317073 -6.678889979207613 -86.03785026628883
rradius 61.67862026563923
rwrist -4.36416034286988
rhand -18.000848157594145 29.651727335077926
rfingers 7.125020000000057
rthumb 8.269254147477122 -0.1592878054149691
24
root 0.15191139236869733 17.840947471779565 9.870158566672659 0.2614155156524469 -0.7143160741983958 -2.0744925585265745
lfemur -12.446893748502411 -1.263565823682013 -20.271541360968037
ltibia 42.34707800947499
lfoot -2.6570710080724056 -5.261531131875123
ltoes -7.2967527472634846
rfemur -14.931213356882862 3.0149302914683513 27.102049648633535
rtibia 48.47443566312545
rfoot -2.354335550867004 -6.851859659647267
rtoes 3.298918702540914
lowerback 12.415245945443672 0.534013483758191 1.1968310583801836
upperback -0.2541299678675333 0.9884867754168181 1.5255414080822463
thorax -7.124837426793024 0.4628255256645011 0.7670842270576447
lowerneck -17.70960402367246 -3.4608637963475575 -2.0507101862286574
upperneck 17.447784647056917 -4.545282032568976 1.8936243847947807
head 8.476812039673348 -2.101640339817913 0.40152523610013424
lclavicle -9.127997834832895e-16 -7.727540273623436e-16
lhumerus -39.1448492784387 -2.6526864842695876 86.90996791736137
lradius 61.2293339734288
lwrist 16.78762033829108
lhand -27.948569093192027 13.322881867995054
lfingers 7.125020000000057
lthumb -1.3360464669587673 43.27593100648344
rclavicle -9.127997834832895e-16 -7.727540273623436e-16
rhumerus -37.618395244520805 -6.618300807991782 -85.99874891086138
rradius 61.82945340206025
rwrist -4.320588535507723
rhand -17.994578620393685 29.683971392277517
rfingers 7.125020000000057
rthumb 8.2753047349931 -0.1270545287815117
